<?xml version="1.0" standalone="no"?>
<!DOCTYPE svg PUBLIC "-//W3C//DTD SVG 20010904//EN"
 "http://www.w3.org/TR/2001/REC-SVG-20010904/DTD/svg10.dtd">
<svg version="1.0" xmlns="http://www.w3.org/2000/svg"
 width="2042.000000pt" height="2188.000000pt" viewBox="0 0 2042.000000 2188.000000"
 preserveAspectRatio="xMidYMid meet">

<g transform="translate(0.000000,2188.000000) scale(0.100000,-0.100000)"
fill="#000000" stroke="none">
<path d="M6852 16943 c-269 -450 -865 -1446 -1324 -2213 -4719 -7887 -4727
-7900 -4737 -7953 -6 -29 -15 -88 -21 -132 -12 -95 -16 -583 -5 -640 53 -282
184 -455 405 -536 148 -53 300 -56 441 -8 63 21 212 94 337 163 34 19 104 57
155 84 50 27 112 60 137 74 62 35 267 146 375 203 50 26 110 59 135 73 25 14
70 39 100 55 30 16 132 71 225 122 189 103 277 150 380 205 39 20 88 47 110
60 22 12 78 43 125 68 47 24 108 57 135 72 63 34 248 135 337 183 94 51 177
96 368 200 91 49 208 112 260 139 52 28 109 58 125 68 17 10 59 33 95 53 36
19 175 94 310 167 135 73 277 149 315 170 39 20 90 49 115 62 25 14 81 45 125
68 44 24 125 68 180 98 55 30 152 82 215 115 63 33 120 63 125 67 6 4 51 29
100 55 50 27 124 67 165 90 41 23 129 70 195 105 66 35 154 82 195 105 41 23
111 62 155 85 44 23 98 53 120 65 22 13 99 54 170 93 72 38 150 80 175 94 25
14 83 45 130 70 47 25 105 56 130 70 63 36 268 146 375 203 50 26 110 59 135
73 48 26 115 63 245 132 44 24 118 64 165 90 47 26 126 68 175 95 114 61 178
96 235 127 25 14 90 49 145 78 55 29 129 70 165 90 89 52 254 134 317 159 68
27 164 36 236 22 65 -12 227 -86 397 -183 63 -36 156 -87 205 -113 100 -54
151 -81 210 -115 22 -13 63 -35 90 -50 54 -29 69 -37 375 -205 461 -253 809
-444 875 -480 101 -54 359 -196 510 -280 72 -40 155 -86 185 -103 30 -16 91
-49 135 -72 44 -24 159 -87 255 -140 96 -54 204 -113 240 -132 121 -66 184
-100 385 -211 110 -61 227 -125 260 -142 33 -18 173 -94 310 -170 138 -76 273
-150 300 -165 202 -110 314 -171 555 -305 151 -83 311 -171 355 -195 119 -64
155 -84 205 -112 25 -14 101 -56 170 -93 69 -37 154 -84 190 -105 36 -21 97
-54 135 -75 123 -66 196 -106 395 -215 107 -59 224 -123 260 -142 36 -19 175
-96 310 -170 135 -74 270 -148 300 -165 30 -16 127 -69 215 -118 373 -205 383
-210 490 -247 76 -26 105 -31 185 -31 286 -1 506 177 581 472 11 42 32 110 48
151 59 152 79 329 61 535 -6 72 -15 146 -19 165 -4 19 -867 1457 -1918 3195
-1051 1738 -2535 4193 -3298 5455 -763 1262 -1391 2299 -1396 2304 -5 6 -120
-100 -296 -275 -159 -156 -748 -740 -1310 -1297 l-1022 -1013 -1355 1335
-1355 1336 -489 -817z m4835 -3409 c896 -851 1629 -1550 1631 -1553 2 -7 -207
-127 -773 -446 -239 -135 -2259 -1246 -2342 -1289 -31 -16 -35 -15 -73 4 -36
18 -43 19 -68 6 -26 -13 -62 6 -1584 863 -857 482 -1556 879 -1555 882 4 13
3119 3079 3128 3079 5 0 741 -696 1636 -1546z"/>
<path d="M6580 5480 l-25 -55 0 -1810 0 -1810 26 -56 c16 -33 42 -68 62 -83
76 -58 46 -57 1097 -57 656 0 980 3 1013 11 100 22 163 84 182 180 3 19 9 43
11 53 5 16 -55 17 -1165 17 l-1171 0 -2 1833 -3 1832 -25 -55z"/>
<path d="M9642 5492 c-16 -30 -25 -71 -32 -145 -13 -134 -12 -3395 1 -3495 18
-137 85 -215 202 -236 50 -9 1934 -9 1984 0 107 19 182 97 198 207 l7 47
-1166 0 -1166 0 -2 1833 -3 1832 -23 -43z"/>
<path d="M13311 5304 c0 -11 3 -14 6 -6 3 7 2 16 -1 19 -3 4 -6 -2 -5 -13z"/>
<path d="M13302 5250 c0 -14 2 -19 5 -12 2 6 2 18 0 25 -3 6 -5 1 -5 -13z"/>
<path d="M7378 5205 c-10 -10 -10 -107 -1 -237 l6 -97 36 15 c83 35 119 37
726 43 601 6 611 6 658 28 52 24 62 32 95 79 23 33 58 151 48 161 -9 9 -1560
16 -1568 8z"/>
<path d="M10437 5203 c-9 -8 -9 -210 -1 -278 l6 -51 72 25 71 25 610 6 c450 5
620 10 649 19 57 19 121 88 140 152 31 103 49 95 -216 102 -304 9 -1323 9
-1331 0z"/>
<path d="M13292 5190 c0 -14 2 -19 5 -12 2 6 2 18 0 25 -3 6 -5 1 -5 -13z"/>
<path d="M13281 5134 c0 -11 3 -14 6 -6 3 7 2 16 -1 19 -3 4 -6 -2 -5 -13z"/>
<path d="M13272 5080 c0 -14 2 -19 5 -12 2 6 2 18 0 25 -3 6 -5 1 -5 -13z"/>
<path d="M13262 5020 c0 -14 2 -19 5 -12 2 6 2 18 0 25 -3 6 -5 1 -5 -13z"/>
<path d="M13252 4965 c0 -16 2 -22 5 -12 2 9 2 23 0 30 -3 6 -5 -1 -5 -18z"/>
<path d="M13242 4905 c0 -16 2 -22 5 -12 2 9 2 23 0 30 -3 6 -5 -1 -5 -18z"/>
<path d="M13231 4844 c0 -11 3 -14 6 -6 3 7 2 16 -1 19 -3 4 -6 -2 -5 -13z"/>
<path d="M13222 4790 c0 -14 2 -19 5 -12 2 6 2 18 0 25 -3 6 -5 1 -5 -13z"/>
<path d="M13212 4735 c0 -16 2 -22 5 -12 2 9 2 23 0 30 -3 6 -5 -1 -5 -18z"/>
<path d="M13202 4675 c0 -16 2 -22 5 -12 2 9 2 23 0 30 -3 6 -5 -1 -5 -18z"/>
<path d="M13191 4614 c0 -11 3 -14 6 -6 3 7 2 16 -1 19 -3 4 -6 -2 -5 -13z"/>
<path d="M13181 4554 c0 -11 3 -14 6 -6 3 7 2 16 -1 19 -3 4 -6 -2 -5 -13z"/>
<path d="M13172 4500 c0 -14 2 -19 5 -12 2 6 2 18 0 25 -3 6 -5 1 -5 -13z"/>
<path d="M13162 4445 c0 -16 2 -22 5 -12 2 9 2 23 0 30 -3 6 -5 -1 -5 -18z"/>
<path d="M13921 4410 c-14 -71 -55 -324 -76 -465 -9 -60 -18 -120 -21 -133 -4
-21 -2 -22 35 -16 35 6 43 2 80 -32 23 -20 53 -56 67 -80 29 -49 103 -232 144
-354 16 -47 89 -263 163 -480 382 -1116 369 -1080 426 -1138 76 -79 151 -102
324 -102 116 0 179 10 234 35 43 21 120 109 148 172 l24 53 -327 0 -328 0
-334 983 c-184 540 -382 1124 -441 1297 l-107 315 -11 -55z"/>
<path d="M16242 4108 c-142 -439 -132 -399 -93 -360 83 83 160 44 215 -106 25
-71 59 -229 97 -455 11 -67 24 -147 30 -177 5 -30 14 -80 19 -110 9 -54 67
-393 134 -787 55 -316 77 -380 155 -440 67 -52 133 -66 280 -61 117 3 130 6
180 33 66 36 93 82 99 167 l4 58 -281 0 c-154 0 -281 3 -281 7 0 4 -81 484
-180 1067 -100 584 -197 1158 -217 1276 -20 118 -39 218 -43 223 -3 4 -56
-147 -118 -335z"/>
<path d="M13152 4380 c0 -14 2 -19 5 -12 2 6 2 18 0 25 -3 6 -5 1 -5 -13z"/>
<path d="M13142 4330 c0 -14 2 -19 5 -12 2 6 2 18 0 25 -3 6 -5 1 -5 -13z"/>
<path d="M13132 4270 c0 -14 2 -19 5 -12 2 6 2 18 0 25 -3 6 -5 1 -5 -13z"/>
<path d="M13122 4215 c0 -16 2 -22 5 -12 2 9 2 23 0 30 -3 6 -5 -1 -5 -18z"/>
<path d="M13112 4150 c0 -14 2 -19 5 -12 2 6 2 18 0 25 -3 6 -5 1 -5 -13z"/>
<path d="M13101 4094 c0 -11 3 -14 6 -6 3 7 2 16 -1 19 -3 4 -6 -2 -5 -13z"/>
<path d="M4465 4010 c-40 -130 -30 -249 38 -440 l34 -95 92 -3 c50 -1 91 1 91
6 0 10 -215 546 -229 570 -7 12 -13 3 -26 -38z"/>
<path d="M13092 4040 c0 -14 2 -19 5 -12 2 6 2 18 0 25 -3 6 -5 1 -5 -13z"/>
<path d="M13082 3980 c0 -14 2 -19 5 -12 2 6 2 18 0 25 -3 6 -5 1 -5 -13z"/>
<path d="M13072 3925 c0 -16 2 -22 5 -12 2 9 2 23 0 30 -3 6 -5 -1 -5 -18z"/>
<path d="M13061 3864 c0 -11 3 -14 6 -6 3 7 2 16 -1 19 -3 4 -6 -2 -5 -13z"/>
<path d="M13052 3810 c0 -14 2 -19 5 -12 2 6 2 18 0 25 -3 6 -5 1 -5 -13z"/>
<path d="M13042 3750 c0 -14 2 -19 5 -12 2 6 2 18 0 25 -3 6 -5 1 -5 -13z"/>
<path d="M13032 3690 c0 -14 2 -19 5 -12 2 6 2 18 0 25 -3 6 -5 1 -5 -13z"/>
<path d="M13022 3635 c0 -16 2 -22 5 -12 2 9 2 23 0 30 -3 6 -5 -1 -5 -18z"/>
<path d="M13012 3580 c0 -14 2 -19 5 -12 2 6 2 18 0 25 -3 6 -5 1 -5 -13z"/>
<path d="M7374 3393 c4 -87 8 -159 10 -160 1 -1 27 7 56 18 84 32 246 40 780
38 498 -1 551 2 608 39 67 43 90 78 111 171 8 35 6 40 -13 45 -11 3 -367 6
-790 6 l-769 0 7 -157z"/>
<path d="M10430 3436 c0 -62 3 -133 6 -158 l6 -45 50 19 c79 30 265 39 783 37
264 -1 498 2 520 6 106 20 180 94 199 199 5 28 4 41 -6 47 -7 5 -361 9 -785 9
l-773 0 0 -114z"/>
<path d="M13002 3520 c0 -14 2 -19 5 -12 2 6 2 18 0 25 -3 6 -5 1 -5 -13z"/>
<path d="M12991 3454 c0 -11 3 -14 6 -6 3 7 2 16 -1 19 -3 4 -6 -2 -5 -13z"/>
<path d="M12982 3405 c0 -16 2 -22 5 -12 2 9 2 23 0 30 -3 6 -5 -1 -5 -18z"/>
<path d="M12971 3344 c0 -11 3 -14 6 -6 3 7 2 16 -1 19 -3 4 -6 -2 -5 -13z"/>
<path d="M12962 3290 c0 -14 2 -19 5 -12 2 6 2 18 0 25 -3 6 -5 1 -5 -13z"/>
<path d="M12952 3230 c0 -14 2 -19 5 -12 2 6 2 18 0 25 -3 6 -5 1 -5 -13z"/>
<path d="M12942 3175 c0 -16 2 -22 5 -12 2 9 2 23 0 30 -3 6 -5 -1 -5 -18z"/>
<path d="M12932 3115 c0 -16 2 -22 5 -12 2 9 2 23 0 30 -3 6 -5 -1 -5 -18z"/>
<path d="M12922 3055 c0 -16 2 -22 5 -12 2 9 2 23 0 30 -3 6 -5 -1 -5 -18z"/>
<path d="M12912 3000 c0 -14 2 -19 5 -12 2 6 2 18 0 25 -3 6 -5 1 -5 -13z"/>
<path d="M12902 2940 c0 -14 2 -19 5 -12 2 6 2 18 0 25 -3 6 -5 1 -5 -13z"/>
<path d="M12892 2885 c0 -16 2 -22 5 -12 2 9 2 23 0 30 -3 6 -5 -1 -5 -18z"/>
<path d="M12882 2825 c0 -16 2 -22 5 -12 2 9 2 23 0 30 -3 6 -5 -1 -5 -18z"/>
<path d="M12871 2764 c0 -11 3 -14 6 -6 3 7 2 16 -1 19 -3 4 -6 -2 -5 -13z"/>
<path d="M12861 2704 c0 -11 3 -14 6 -6 3 7 2 16 -1 19 -3 4 -6 -2 -5 -13z"/>
<path d="M3296 2638 c-73 -185 -146 -373 -146 -377 0 -3 12 12 26 32 37 55
131 112 217 133 62 15 141 18 572 22 688 5 811 -6 921 -81 76 -53 124 -136
209 -362 93 -248 133 -308 237 -361 61 -31 206 -45 343 -34 124 10 184 40 213
103 13 29 16 97 6 134 l-6 23 -286 2 -286 3 -151 417 -150 418 -845 0 -845 0
-29 -72z"/>
<path d="M12852 2655 c0 -16 2 -22 5 -12 2 9 2 23 0 30 -3 6 -5 -1 -5 -18z"/>
<path d="M12842 2590 c0 -14 2 -19 5 -12 2 6 2 18 0 25 -3 6 -5 1 -5 -13z"/>
<path d="M12832 2530 c0 -14 2 -19 5 -12 2 6 2 18 0 25 -3 6 -5 1 -5 -13z"/>
<path d="M12821 2474 c0 -11 3 -14 6 -6 3 7 2 16 -1 19 -3 4 -6 -2 -5 -13z"/>
<path d="M12812 2420 c0 -14 2 -19 5 -12 2 6 2 18 0 25 -3 6 -5 1 -5 -13z"/>
<path d="M12802 2360 c0 -14 2 -19 5 -12 2 6 2 18 0 25 -3 6 -5 1 -5 -13z"/>
<path d="M12792 2310 c0 -14 2 -19 5 -12 2 6 2 18 0 25 -3 6 -5 1 -5 -13z"/>
<path d="M12782 2250 c0 -14 2 -19 5 -12 2 6 2 18 0 25 -3 6 -5 1 -5 -13z"/>
<path d="M12772 2190 c0 -14 2 -19 5 -12 2 6 2 18 0 25 -3 6 -5 1 -5 -13z"/>
<path d="M12762 2130 c0 -14 2 -19 5 -12 2 6 2 18 0 25 -3 6 -5 1 -5 -13z"/>
<path d="M12752 2075 c0 -16 2 -22 5 -12 2 9 2 23 0 30 -3 6 -5 -1 -5 -18z"/>
<path d="M12742 2015 c0 -16 2 -22 5 -12 2 9 2 23 0 30 -3 6 -5 -1 -5 -18z"/>
<path d="M12731 1954 c0 -11 3 -14 6 -6 3 7 2 16 -1 19 -3 4 -6 -2 -5 -13z"/>
<path d="M2236 1854 c-3 -9 -6 -41 -6 -72 0 -67 23 -107 84 -142 37 -22 54
-25 194 -28 254 -7 333 27 426 182 20 33 36 63 36 68 0 4 -164 8 -364 8 -323
0 -365 -2 -370 -16z"/>
<path d="M12720 1833 c0 -107 63 -188 161 -212 87 -21 310 -10 370 18 72 32
136 116 154 199 l7 32 -346 0 -346 0 0 -37z"/>
</g>
</svg>
